<?xml version="1.0" encoding="UTF-8"?>
<svg id="Camada_1" xmlns="http://www.w3.org/2000/svg" version="1.1" viewBox="0 0 1149.7 170.5">
  <!-- Generator: Adobe Illustrator 30.1.0, SVG Export Plug-In . SVG Version: 2.1.1 Build 136)  -->
  <defs>
    <style>
      .st0 {
        fill: #c10d19;
      }

      .st1 {
        font-family: Microsport-Bold, Microsport;
        font-size: 65.3px;
        font-weight: 700;
      }

      .st1, .st2, .st3 {
        fill: #fff;
      }

      .st3 {
        font-family: Conthrax-SemiBold, Conthrax;
        font-size: 67.3px;
        font-weight: 600;
        letter-spacing: .1em;
      }
    </style>
  </defs>
  <g>
    <path class="st2" d="M752.8,7.2h-55.7l-15.5,27.2h-7.3l-7.8-27.2H22.6l-5.7,40.7-7.8,55.5h52.9l3.8-27.2h66.6l-3.8,27.2h52.9l3.8-27.2h15.6l7.8,27.2h331.4l2.3-16.3h23.3l-2.3,16.3h90.5l15.5-27.2h7.3l7.8,27.2h456.4V7.2h-388.2ZM332,49.1l-1.8,12.6h-23.3l1.9-13.7h23.2v1.1c-.1,0,0,0,0,0Z"/>
    <g>
      <polygon points="735.6 17.3 702.9 17.3 687.4 44.5 666.7 44.5 658.9 17.3 626.2 17.3 637.2 55.4 615.5 93.5 648.2 93.5 663.7 66.3 684.3 66.3 692.2 93.5 724.8 93.5 713.8 55.4 735.6 17.3"/>
      <polygon points="270.4 17.3 267.5 38 343.4 38 343.2 39 343.6 39 339 71.7 295.4 71.7 299.1 45.6 266.4 45.6 259.7 93.5 368.6 93.5 379.3 17.3 270.4 17.3"/>
      <polygon points="259.8 17.3 150.9 17.3 148 38 224 38 223.9 39 224 39 223.2 44.5 223.1 44.5 222.9 45.6 146.9 45.6 140.1 93.5 172.8 93.5 176.6 66.3 208.5 66.3 216.4 93.5 249 93.5 241.2 66.3 252.8 66.3 259.8 17.3"/>
      <polygon points="31.3 17.3 28.4 38 104.7 38 103.5 45.6 27.3 45.6 20.6 93.5 53.3 93.5 57.1 66.3 133.3 66.3 140.2 17.3 31.3 17.3"/>
      <polygon points="390 17.3 379.2 93.5 410.8 93.5 418.8 35.6 426.2 37.8 418.5 93.5 448.8 93.5 456.8 35.6 464.1 37.8 456.5 93.5 488.1 93.5 498.9 17.3 390 17.3"/>
      <polygon points="509.5 17.3 506.6 38 582.7 38 582.5 39 582.7 39 580.3 55.4 536.8 55.4 538.2 45.6 505.5 45.6 498.8 93.5 531.5 93.5 533.7 77.2 577.3 77.2 575 93.5 607.7 93.5 618.4 17.3 509.5 17.3"/>
    </g>
    <path class="st0" d="M751.2,17.3l-21.7,38.1,11,38.1h390.5V17.3h-379.8Z"/>
  </g>
  <text class="st3" transform="translate(762.7 80.5)"><tspan x="0" y="0">TUNER</tspan></text>
  <text class="st1" transform="translate(488.8 161.7) scale(1.1 1) skewX(-15)"><tspan x="0" y="0">PERFORMANCE</tspan></text>
</svg>