<?xml version="1.0" encoding="UTF-8"?>
<svg id="Camada_1" xmlns="http://www.w3.org/2000/svg" xmlns:xlink="http://www.w3.org/1999/xlink" version="1.1" viewBox="0 0 4773.3 916.6">
  <!-- Generator: Adobe Illustrator 30.1.0, SVG Export Plug-In . SVG Version: 2.1.1 Build 136)  -->
  <defs>
    <style>
      .st0 {
        fill: none;
      }

      .st1 {
        fill: url(#Gradiente_sem_nome_16);
      }

      .st1, .st2, .st3, .st4 {
        fill-rule: evenodd;
      }

      .st5 {
        fill: url(#Gradiente_sem_nome_164);
      }

      .st6 {
        fill: url(#Gradiente_sem_nome_165);
      }

      .st7 {
        fill: url(#Gradiente_sem_nome_166);
      }

      .st8 {
        fill: url(#Gradiente_sem_nome_167);
      }

      .st9 {
        fill: url(#Gradiente_sem_nome_162);
      }

      .st10 {
        fill: url(#Gradiente_sem_nome_161);
      }

      .st11 {
        fill: url(#Gradiente_sem_nome_163);
      }

      .st2 {
        fill: #00388a;
      }

      .st3 {
        fill: #9a999e;
      }

      .st12 {
        fill: #fff;
      }

      .st4, .st13 {
        fill: #00408f;
      }

      .st14 {
        fill: #bf0811;
      }
    </style>
    <linearGradient id="Gradiente_sem_nome_16" data-name="Gradiente sem nome 16" x1="1071.3" y1="78.3" x2="1071.3" y2="744.9" gradientUnits="userSpaceOnUse">
      <stop offset="0" stop-color="#00357a"/>
      <stop offset="1" stop-color="#003b85"/>
    </linearGradient>
    <linearGradient id="Gradiente_sem_nome_161" data-name="Gradiente sem nome 16" x1="2607.2" y1="262.1" x2="2808.2" y2="262.1" xlink:href="#Gradiente_sem_nome_16"/>
    <linearGradient id="Gradiente_sem_nome_162" data-name="Gradiente sem nome 16" x1="4454.5" y1="553.2" x2="4454.5" y2="246.9" xlink:href="#Gradiente_sem_nome_16"/>
    <linearGradient id="Gradiente_sem_nome_163" data-name="Gradiente sem nome 16" x1="2707.5" y1="550.9" x2="2707.5" y2="284.6" xlink:href="#Gradiente_sem_nome_16"/>
    <linearGradient id="Gradiente_sem_nome_164" data-name="Gradiente sem nome 16" x1="2311.9" y1="556.1" x2="2311.9" y2="242.8" xlink:href="#Gradiente_sem_nome_16"/>
    <linearGradient id="Gradiente_sem_nome_165" data-name="Gradiente sem nome 16" x1="3099.4" y1="552.8" x2="3099.4" y2="287.3" xlink:href="#Gradiente_sem_nome_16"/>
    <linearGradient id="Gradiente_sem_nome_166" data-name="Gradiente sem nome 16" x1="4064" y1="552.8" x2="4064" y2="290.3" xlink:href="#Gradiente_sem_nome_16"/>
    <linearGradient id="Gradiente_sem_nome_167" data-name="Gradiente sem nome 16" x1="3578.4" y1="552.2" x2="3578.4" y2="288.8" xlink:href="#Gradiente_sem_nome_16"/>
  </defs>
  <path class="st3" d="M4650.1,1699.5s0,0,0,0c0,0,0,0,0,0,0,0,0,0,0,0,0,0,0,0,0,0"/>
  <path class="st3" d="M4650.1,1699.5s0,0,0,0c0,0,0,0,0,0,0,0,0,0,0,0,0,0,0,0,0,0"/>
  <g>
    <path class="st12" d="M4755.8,223.2c-2.1-53.9-46-97.5-99.9-99.1-45.7-1.4-85,27-100,67.2h-254.9l-.3,91.7c-21.8-14.9-51-26.3-88.7-34.7-41.5-9.2-91.6-13.7-153.2-13.7s-95,3.8-134,11.2c-46,8.7-79.8,22.1-103.1,41l-.2.2c-3.2,2.6-6.2,5.4-9.1,8.2-3.9-4.6-8.3-9.1-12.9-12.8l-.4-.3c-8.8-7-19.1-13.1-34.6-20.2-20.4-9.4-47.4-16.5-82.5-21.8-31.8-4.7-70.3-7.1-114.3-7.1s-6.5,0-9.7,0c-1.3,0-2.8,0-4.2,0-4.6,0-9.9.1-15.7.4-33,1-63.4,3.8-90.2,8.3-19.7,3.3-36.7,7.4-51.3,12.5l-2.2.8c-7.6,2.6-14.9,5.8-22,9.4l-2.7,1.4c-1.7.9-3.4,1.9-5,2.9-3.8,2.2-12.5,7.9-21.6,17.4-22.4-17.8-54.3-31.2-97.4-40.8-41.5-9.3-91.6-13.8-153.3-13.8s-95.1,3.8-134.1,11.4c-38.7,7.4-68.7,18.4-91.3,33.4v-84.3h-580v51.7c-20-2.8-41.1-4.1-64.3-4.1-36.6,0-67.8,3.7-95.5,11.2-32.2,8.8-53.6,19.8-68.2,35.3-13.5-16.4-29.8-32.2-48.6-47.3-54.5-43.9-130.8-82.7-227-115.4-190.6-64.9-442.8-100.7-710.1-100.7S553.7,58.4,363.2,123.3c-96.2,32.8-172.5,71.6-227,115.4-30.2,24.3-53.8,50.4-70.1,77.5-18.6,30.9-28,63.3-28,96.4s9.4,65.5,28,96.4c16.3,27.1,39.9,53.2,70.1,77.5,54.5,43.9,130.8,82.7,227,115.4,190.6,64.9,442.8,100.7,710.1,100.7s519.6-35.7,710.1-100.7c96.2-32.8,172.5-71.6,227-115.4,13.9-11.2,26.4-22.8,37.5-34.7,1.8,3,3.7,5.8,5.7,8.5,14.3,18.7,37.3,32.1,72.6,41.9,27.5,7.7,58.3,11.5,94.2,11.5s45.2-1.8,66.6-5.2h0c0,0,265.4,0,265.4,0h314.4v-44.2c7.9,5.1,16.7,9.9,26.5,14.3,23.3,10.6,53.3,18.5,91.7,24.1,35.9,5.2,75.7,7.7,121.5,7.7s87.2-2.6,119.5-8c35.1-5.8,64.2-14.6,88.8-26.9l.3-.2c16.5-8.4,29.5-16.7,39.6-25.4,12.8,15.1,31.3,27.1,56.3,36.5,15.7,5.9,29.5,9,33.2,9.8,4.8,1.1,9.8,2.1,14.9,3.1l-11,36.6h-274.3s-183.3,0-183.3,0h-580.3c-11.7,0-22.9,2.3-33.1,6.4-9.6-4.1-20.2-6.5-31.3-6.5h-303.3v248.3h149.1v-53.3h138.6c12.3,31.2,43.5,53.4,80,53.4h210.2c12.7,0,24.7-2.7,35.5-7.5,10.5,4.8,22.2,7.5,34.6,7.5h218.2c.9,0,1.7,0,2.6,0h411.5v-53.3h79.2l26.2,53.3h165.9l-47.3-96.2c4.8-9.8,7.5-20.7,7.5-32.2v-42.7h53c-.1,1.9-.2,3.9-.2,5.8v82.5c0,45.7,38.4,83,85.7,83h295.1c0,0,56.9,0,56.9,0v-51.5h76.5v51.5h207s53.7,0,53.7,0v-53.3h156.4c42.6,0,77.2-33.7,77.2-75.2v-44.7c0-18.5-6.9-35.4-18.3-48.5l15.8-51.7h0s.4,0,.4,0v-288.1c12.1,5,25.3,7.7,39.2,7.7,58.3,0,105.5-48.6,103.2-107.4Z"/>
    <path class="st3" d="M1732.9,425.8s0,0,0,0,0,0,0,0c0,0,0,0,0,0,0,0,0,0,0,0"/>
    <path class="st3" d="M1732.9,425.8s0,0,0,0,0,0,0,0c0,0,0,0,0,0,0,0,0,0,0,0"/>
    <path class="st3" d="M1993.6,317.2s0,0,0,0,0,0,0,0,0,0,0,0,0,0,0,0"/>
    <path class="st3" d="M1993.6,317.2s0,0,0,0,0,0,0,0,0,0,0,0,0,0,0,0"/>
    <polyline class="st3" points="3078.9 484.4 3078.9 484.4 3078.9 484.4 3078.9 484.4 3078.9 484.4"/>
    <polyline class="st3" points="3078.9 484.4 3078.9 484.4 3078.9 484.4 3078.9 484.4 3078.9 484.4"/>
    <path class="st3" d="M513.4,665.5s0,0,0,0,0,0,0,0c0,0,0,0,0,0,0,0,0,0,0,0"/>
    <path class="st3" d="M513.4,665.5s0,0,0,0,0,0,0,0c0,0,0,0,0,0,0,0,0,0,0,0"/>
    <path class="st3" d="M1314.5,331.7c0,0,0,0-.1,0s-.1,0-.1,0,0,0,.1,0,.1,0,.1,0"/>
    <path class="st3" d="M1314.5,331.7c0,0,0,0-.1,0s-.1,0-.1,0,0,0,.1,0,.1,0,.1,0"/>
    <g>
      <path class="st4" d="M4536.3,691.7h-248.8v135h35.7v-53.3h213.1c12,0,20.5-8.9,20.5-18.5v-44.7c0-9.5-8.6-18.5-20.5-18.5ZM4511.5,741.9h-188.4v-15.2h188.4c4.8,0,7.8,3.9,7.8,7.6s-3.1,7.6-7.8,7.6Z"/>
      <rect class="st13" x="4232" y="691.8" width="37.5" height="134.9"/>
      <polygon class="st4" points="4175.9 741.5 3986 741.5 3986 691.8 3948.5 691.8 3948.5 826.7 3986 826.7 3986 775.2 4175.9 775.2 4175.9 826.7 4213.5 826.7 4213.5 691.8 4175.9 691.8 4175.9 741.5"/>
      <path class="st4" d="M3661.7,718v82.5c0,13.5,12,26.3,29,26.3h238.4v-37.7h-223.8c-2,0-3.1-1.8-3.1-3.3v-53.1c0-1.4,1.2-3.3,3.1-3.3h223.8v-37.7h-238.4c-17,0-29,12.8-29,26.3Z"/>
      <path class="st4" d="M3475,773.4c12,0,20.5-8.9,20.5-18.5v-44.7c0-9.5-8.6-18.5-20.5-18.5h-246.6v135h35.7v-53.3h171.2l26.2,53.3h39.6l-26.2-53.3h.2ZM3450.2,741.9h-186.2v-15.2h186.2c4.8,0,7.8,3.9,7.8,7.6s-3.1,7.6-7.8,7.6Z"/>
      <polygon class="st4" points="2945.5 826.7 3215.8 826.7 3215.8 788.4 2985.8 788.4 2985.8 771.7 3215.8 771.7 3215.8 739.8 2985.8 739.8 2985.8 723.4 3215.8 723.4 3215.8 691.8 2945.5 691.8 2945.5 826.7"/>
      <path class="st4" d="M2889.6,783.4c0,2.8-2.3,5.9-6,5.9h-68.1v-97.6h-38.3v97.6h-68.1c-3.7,0-6-3.1-6-5.9v-91.7h-39.7v112.3c0,11.7,10.4,22.7,25.1,22.7h218.2c14.7,0,25.1-11,25.1-22.7v-112.3h-42.1v91.7Z"/>
      <path class="st4" d="M2618.3,691.8h-210.2c-17,0-29,12.8-29,26.3v82.5c0,13.5,12,26.3,29,26.3h210.2c17,0,29-12.8,29-26.3v-82.5c0-13.5-12-26.3-29-26.3ZM2606.7,785.8c0,1.4-1.2,3.3-3.1,3.3h-181c-2,0-3.1-1.8-3.1-3.3v-53.1c0-1.4,1.2-3.3,3.1-3.3h181c2,0,3.1,1.8,3.1,3.3v53.1Z"/>
      <path class="st4" d="M2343.7,691.7h-246.6v135h35.7v-53.3h211c12,0,20.5-8.9,20.5-18.5v-44.7c0-9.5-8.5-18.5-20.5-18.5ZM2318.9,741.9h-186.2v-15.2h186.2c4.8,0,7.8,3.9,7.8,7.6s-3.1,7.6-7.8,7.6Z"/>
    </g>
    <path class="st1" d="M1071.3,78.3c540.3,0,978.5,149.3,978.5,333.3s-438.2,333.3-978.5,333.3S92.8,595.6,92.8,411.6,531,78.3,1071.3,78.3Z"/>
    <rect class="st10" x="2607.2" y="246.1" width="201" height="32"/>
    <path class="st12" d="M1904.5,422.8v-31c0-24.7-6.2-43.9-21.1-57.5-14.9-13.6-40.1-24.6-77.1-32.9-37-8.3-83.6-12.4-140.5-12.4s-87.4,3.4-123.2,10.3c-35.8,6.8-62.2,16.7-78,29.6-15.6,12.9-24,30.4-24,52.7v74.4c0,19,4,33.4,11,43.4,7,9.9,20,19,38.3,27.3,18.2,8.3,43.8,14.8,76.6,19.5,32.9,4.7,70.7,7.1,113.5,7.1s81.1-2.4,110.2-7.2c29.3-4.8,53.5-12,72.7-21.6,19-9.6,29.8-18.6,35-27.1,5.1-8.5,6.5-20.6,6.5-36.3v-18.9h-190.1v33.8c0,12.7-2.5,21.2-7.6,25.6-5.1,4.4-15.3,6.6-30.7,6.6s-20.9-1.7-25.3-5c-4.3-3.3-6.7-10.8-6.7-22.3v-58h260.4ZM1644.1,365.5c0-14.4,1.9-23.2,5.4-26.4,3.3-3.3,12.1-4.9,26.2-4.9s18.8,2,22.5,5.8c3.6,3.9,5.4,12.4,5.4,25.6v19.6h-59.5v-19.6Z"/>
    <path class="st12" d="M1374.9,287.5v235.4c0,27.7-1.2,46.4-3.8,56.2-2.6,9.8-10.3,18.4-23.1,25.8-12.9,7.4-30.2,12.9-51.8,16.5-21.6,3.5-54,5.4-97.2,5.4h-78.3v-47.5c24.2,0,37.7-1.2,40.8-3.6,2.9-2.4,4.5-17.4,4.5-44.9v-243.3h208.9Z"/>
    <rect class="st12" x="1166" y="245.2" width="208.9" height="31.7"/>
    <path class="st12" d="M824.5,290.3l.5,24.2c14.6-9.7,32.6-16.9,53.8-21.7,21.4-4.8,45.9-7.2,73.7-7.2s63.2,3.2,85.4,9.7c22.1,6.4,36.3,14.6,42.7,24.4,6.3,9.9,9.4,26.3,9.4,49.3v184.4h-202.8v-182.1c0-18.1-1.5-29.2-4.6-33.2-2.9-3.9-11.3-6-25-6s-23.5,2.3-27.1,6.9c-3.8,4.5-5.5,16.7-5.5,36.5v177.8h-202.9v-263.1h202.4Z"/>
    <rect class="st12" x="340.3" y="289.9" width="208.9" height="263.4"/>
    <rect class="st12" x="340.3" y="244.4" width="208.9" height="33.5"/>
    <path class="st14" d="M4483.3,589.7h72.9l-4.2,14.1h-45.6l-3.2,10.5h42.2l-4,13.4h-42.2l-3.9,13h46.9l-4.5,14.9h-74.2l19.8-65.8ZM4434.5,628.6l22.3,5.4c-3.1,5-6.9,9.2-11.4,12.5-4.5,3.4-9.5,5.9-15.1,7.6-5.6,1.7-12.4,2.6-20.3,2.6s-17.1-1-22.6-3.1c-5.4-2.1-9.6-5.7-12.4-11-2.8-5.2-3-11.9-.6-20.1,3.3-10.9,9.7-19.2,19.2-25.1,9.5-5.8,21.4-8.8,35.6-8.8s19.3,1.7,24.7,5c5.3,3.4,8.5,8.5,9.5,15.5l-25.2,4c-.2-2-.7-3.4-1.3-4.4-1.1-1.5-2.6-2.7-4.5-3.6-2-.8-4.3-1.3-7-1.3-6.2,0-11.5,1.9-15.9,5.5-3.3,2.7-5.9,7.1-7.6,12.9-2.2,7.3-2.2,12.3,0,15,2.2,2.7,5.9,4,11.3,4s9.5-1.1,12.8-3.3c3.3-2.2,6.2-5.3,8.7-9.5ZM4285.2,589.7h25.4l22.1,36.3,10.9-36.3h25.7l-19.8,65.8h-25.7l-22-36.1-10.9,36.1h-25.6l19.8-65.8ZM4225.4,630.4l-2.5-23.6-16.8,23.6h19.3ZM4226.9,644.7h-30.9l-7.7,10.8h-27.8l53-65.8h29.8l13.2,65.8h-28.5l-1.1-10.8ZM4072.7,589.7h35.9l1.6,40,25.8-40h35.8l-19.8,65.8h-22.3l15.1-50.2-32.3,50.2h-20.2l-2.1-50.2-15.1,50.2h-22.3l19.8-65.8ZM3996.9,616.5h11.5c1.2,0,3.7-.3,7.5-.9,1.9-.3,3.6-.9,5-2.1,1.5-1.1,2.4-2.4,2.9-3.8.6-2.1.2-3.8-1.2-4.9-1.5-1.1-4.7-1.7-9.7-1.7h-12l-4,13.4ZM3957.8,655.5l19.8-65.8h45.4c8.4,0,14.7.5,18.8,1.6,4.1,1.1,7.1,3.1,9,6,1.8,2.9,2.1,6.5.9,10.7-1.1,3.6-3.1,6.8-6,9.4-2.9,2.7-6.4,4.8-10.6,6.5-2.6,1-6.1,1.9-10.3,2.6,3,.8,5.1,1.6,6.4,2.4.8.5,1.9,1.7,3.3,3.5,1.4,1.8,2.2,3.1,2.6,4.1l7.5,19h-30.8l-8.5-20.1c-1.1-2.6-2.2-4.3-3.4-5.1-1.7-1-3.7-1.5-6.2-1.5h-2.4l-8,26.6h-27.3ZM3888.5,622.7c-2,6.6-1.8,11.4.7,14.3,2.5,2.9,6.5,4.3,12.2,4.3s10.8-1.4,14.9-4.3c4.1-2.8,7.2-7.9,9.4-15.3,1.9-6.2,1.5-10.7-.9-13.6-2.5-2.9-6.6-4.3-12.4-4.3s-10.4,1.5-14.6,4.3c-4.2,2.9-7.3,7.7-9.3,14.4ZM3861.3,622.7c3.2-10.7,9.8-19.1,19.6-25.1,9.8-6,21.9-9,36.2-9s25.1,2.9,31.3,8.8c6.2,5.9,7.6,14.1,4.5,24.7-2.3,7.7-5.9,14-10.9,18.9-4.9,4.9-11.1,8.7-18.5,11.5-7.4,2.7-16,4.1-25.8,4.1s-17.8-1.2-23.6-3.5c-5.8-2.4-10-6.1-12.5-11.2-2.5-5.1-2.6-11.5-.3-19.2ZM3792.7,589.7h67.3l-4.3,14.2h-40l-3.5,11.5h34.2l-4,13.3h-34.2l-8.1,26.8h-27.3l19.8-65.8ZM3716.4,616.5h11.5c1.2,0,3.7-.3,7.5-.9,1.9-.3,3.6-.9,5-2.1,1.5-1.1,2.4-2.4,2.9-3.8.6-2.1.2-3.8-1.2-4.9-1.5-1.1-4.7-1.7-9.7-1.7h-12l-4,13.4ZM3677.3,655.5l19.8-65.8h45.4c8.4,0,14.7.5,18.8,1.6,4.1,1.1,7.1,3.1,9,6,1.8,2.9,2.1,6.5.9,10.7-1.1,3.6-3.1,6.8-6,9.4-2.9,2.7-6.4,4.8-10.6,6.5-2.6,1-6.1,1.9-10.3,2.6,3,.8,5.1,1.6,6.4,2.4.8.5,1.9,1.7,3.3,3.5,1.4,1.8,2.2,3.1,2.6,4.1l7.5,19h-30.8l-8.5-20.1c-1.1-2.6-2.2-4.3-3.4-5.1-1.7-1-3.7-1.5-6.2-1.5h-2.4l-8,26.6h-27.3ZM3607.9,589.7h72.9l-4.2,14.1h-45.6l-3.2,10.5h42.2l-4,13.4h-42.2l-3.9,13h46.9l-4.5,14.9h-74.2l19.8-65.8ZM3537.7,617.8h6.7c5.3,0,9.2-.7,11.8-2.1,2.5-1.4,4.1-3.1,4.8-5.2.6-2.1.2-3.8-1.2-5.3-1.4-1.4-4.7-2.2-9.8-2.2h-7.8l-4.4,14.7ZM3518.8,589.7h45.3c9.9,0,16.7,1.7,20.6,5.3,3.8,3.5,4.8,8.5,2.9,15-2,6.6-6.3,11.9-12.7,15.6-6.5,3.8-15.2,5.6-26.2,5.6h-14.9l-7.3,24.3h-27.3l19.8-65.8Z"/>
    <g>
      <path class="st2" d="M4671.3,239.4c-2.8-3.7-5-6.3-6.6-7.7-1.6-1.4-3.7-2.8-6.2-4,5-.6,8.8-2.1,11.4-4.4,2.5-2.3,3.8-5.3,3.8-8.8s-.8-5.3-2.5-7.5c-1.7-2.2-3.9-3.7-6.7-4.5-2.8-.9-7.2-1.3-13.4-1.3h-24.4v47.5h11.6v-19.8h2.3c2.7,0,4.6.2,5.8.5,1.2.4,2.4,1,3.5,2,1.1,1,3.1,3.3,6.1,7l8.4,10.3h13.9l-7-9.3ZM4646.9,221.3h-8.6v-12h9c4.7,0,7.5,0,8.5.2,1.9.3,3.3.9,4.4,1.9,1,1,1.5,2.3,1.5,3.9s-.4,2.6-1.2,3.6c-.8,1-1.9,1.6-3.2,2-1.4.4-4.9.6-10.4.6Z"/>
      <path class="st2" d="M4650.6,179.7c-25.7,0-46.6,20.9-46.6,46.6s20.9,46.6,46.6,46.6,46.6-20.9,46.6-46.6-20.9-46.6-46.6-46.6ZM4650.6,264.7c-21.2,0-38.4-17.2-38.4-38.4s17.2-38.4,38.4-38.4,38.4,17.2,38.4,38.4-17.2,38.4-38.4,38.4Z"/>
    </g>
    <path class="st0" d="M3100.1,332.6c-14.1,0-23.2,1.6-26.4,4.9-3.4,3.3-5.3,12.1-5.3,26.6v18.5h57.8v-18.5c0-13.3-.9-21.8-4.5-25.7-3.8-3.8-10.3-5.8-21.6-5.8Z"/>
    <path class="st0" d="M2335.7,344.6c-4-3.2-12.1-4.8-23.9-4.8s-19.9,1.4-23.8,4.3c-4,2.8-6.6,9.2-6.6,19.1v123.3c0,10.2,2.7,17,6.6,20.2,3.8,3.2,11.7,4.9,22.5,4.9s20.7-1.8,25-5.4c4.1-3.6,6.1-12.4,6.1-26.4v-116.5c0-9.3-1.8-15.4-5.9-18.6Z"/>
    <path class="st0" d="M3577.7,336.3c4.2,0,8.2.3,12,.6-3.4-.4-7.3-.6-12-.6Z"/>
    <path class="st0" d="M4066.1,335.1c-14.1,0-23.6,1.6-26.9,4.9-3.4,3.3-6.1,12-6.1,26.3v18.8h60.3v-18.8c0-13.1-1.5-21.6-5.1-25.4-3.8-3.8-10.9-5.7-22.2-5.7Z"/>
    <polygon class="st9" points="4355.4 246.9 4354.3 550.8 4444.4 553 4554.7 553.2 4554.7 246.9 4355.4 246.9"/>
    <rect class="st11" x="2607" y="284.6" width="201" height="266.3"/>
    <path class="st5" d="M2341.6,315.7c-17.6-6.8-34.6-11.9-54.7-15.3-20.1-3.4-42.1-5.1-66.3-5.1s-58,3-80.6,9.2c-22.6,6.2-37.1,13.3-43.4,21.4-6.3,8.1-9.6,21.8-9.6,41.1v117.8c0,18.6,3.4,32,9.6,40.2,6.3,8.2,20.6,15.5,42.8,21.7,22.3,6.3,48.5,9.4,78.9,9.4s43.8-1.9,64.4-5.7c20.6-3.8,41.2-9.5,58.8-17v17.6h195.1V242.8h-195.1v72.9ZM2341.6,479.6c0,14-1.9,22.9-6,26.4-4.3,3.6-12.6,5.4-25.1,5.4s-18.9-1.6-22.7-4.9c-4-3.2-6.5-10-6.5-20.2v-123.3c0-9.9,2.8-16.3,6.7-19.1,4-2.8,12.2-4.3,23.7-4.3s19.9,1.6,23.8,4.8c4.1,3.2,6,9.3,6,18.6v116.5Z"/>
    <path class="st6" d="M3231.2,299.7c-37-8.3-84-12.5-140.9-12.5s-87.6,3.4-123.4,10.4c-35.8,6.9-61.4,16.8-77.1,29.7-15.6,12.9-23.1,30.6-23.1,53v74.8c0,19.1,3.1,33.6,10.1,43.6,7,10,19.5,19.1,37.9,27.4,18.2,8.3,43.6,14.8,76.4,19.6,32.9,4.7,70.6,7.1,113.4,7.1s81.1-2.4,110.2-7.3c29.3-4.8,53.5-12.1,72.7-21.7,19-9.7,31.5-18.7,36.7-27.2,5.1-8.5,8.2-20.7,8.2-36.5v-18.1h-193.4v33c0,12.7-2.5,21.3-7.7,25.8-5.1,4.4-15.3,6.7-30.8,6.7s-20.8-1.7-25.3-5c-4.3-3.4-6.6-10.8-6.6-22.4v-57.2h263.8v-32.2c0-24.9-7.9-44.1-22.8-57.8-14.9-13.7-41.1-24.7-78.2-33ZM3126.2,382.6h-57.8v-18.5c0-14.4,1.9-23.3,5.3-26.6,3.3-3.3,12.1-4.9,26.1-4.9s18,2,21.8,5.8c3.6,3.9,4.6,12.5,4.6,25.7v18.5Z"/>
    <path class="st7" d="M4197.6,302.6c-37-8.2-84-12.3-140.9-12.3s-87.6,3.4-123.4,10.2c-35.8,6.8-62.2,16.6-78,29.4-15.6,12.8-24,30.2-24,52.4v73.9c0,18.8,3.9,33.2,11,43.1,7,9.8,20,18.9,38.3,27.1,18.2,8.2,43.8,14.7,76.6,19.4,32.9,4.7,70.7,7,113.5,7s81.1-2.3,110.2-7.2c29.3-4.8,53.5-11.9,72.7-21.4,19-9.6,30.7-18.5,35.8-26.9,5.1-8.4,7.4-20.5,7.4-36.1v-19.1h-191.8v33.9c0,12.6-2.5,21.1-7.7,25.5-5.1,4.4-15.3,6.6-30.7,6.6s-21.7-1.7-26.1-5c-4.3-3.3-7.5-10.7-7.5-22.2v-58.1h263.8v-30.4c0-24.6-7-43.6-22-57.2-14.9-13.6-40.3-24.4-77.3-32.7ZM4093.3,385.1h-60.3v-18.8c0-14.3,2.3-22.9,6.1-26.3,3.5-3.1,12.5-4.9,26.6-4.9s18.6,2,22.4,5.7c3.6,3.8,5.2,12.3,5.2,25.4v18.8Z"/>
    <path class="st8" d="M3559.4,501.8c3.4,3,10.3,4.8,23.5,4.8s20.4.2,23.7-4c2.3-3.2,3.6-7.8,3.6-13.6,0-12.4-3.3-20.1-10.2-23.2-7.3-3.1-44.3-12.3-111.1-27.6-48.8-11.3-81-21.6-96.6-31.1-.1,0-.2-.1-.3-.2,0,0-.1,0-.2-.1-2.1-1.3-3.9-2.6-5.4-3.9-.2-.2-.5-.4-.7-.6-2.8-2.4-5.3-4.9-7.3-7.5,0,0-.1,0-.1,0h0c-10.9-14.1-11.4-31.8-8.4-47.4,3.9-20.6,21.6-30.6,21.6-30.6,0,0,0,0,0,0,1.8-1.2,4-2.3,6.5-3.4,13.5-6.8,32.5-12.3,57.2-16.5,24.6-4.1,52.3-6.7,83.1-7.6,6.8-.3,12.7-.5,17.2-.3,3.3,0,6.7,0,10.1,0,41.4,0,77,2.2,106,6.5,29.2,4.4,51.7,10.1,67.2,17.2,10.7,4.9,17.6,8.8,22.7,12.9,3.7,3,7.1,7.2,8.4,9.7,3.3,6,5.3,14.6,5.3,27.4v15.1h-166.6v-16.7s.5-15.6-4.4-19.5c-3-2.4-7.6-3.7-14.4-4.4-3.4-.4-7.3-.6-11.9-.6-10.7,0-18.6,1.4-23.9,4.3-4.2,2.3-6.6,5-7.6,9.6-.1.9-.3,1.8-.3,2.4-.7,12.3,3.7,19.5,10.6,22.6,7.3,3.1,44.4,12.3,111.1,27.6,37.7,8.7,65.5,16.9,83.4,24.5,4.7,1.9,8.6,3.8,11.9,5.7,17,9.8,25.6,23.9,25.6,42.5s-5.5,34.2-18.1,45.4c-2.9,2.6-9.4,6.9-16.3,9.6-13.1,5.9-30.6,10-52.9,13.7-24.6,4.1-52.3,6.7-83.1,7.6-6.8.3-12.7.5-17.2.3-3.3,0-6.7,0-10.1,0-41.4,0-76.9-2.2-106-6.5-11.3-1.7-21.6-3.7-30.9-5.8.1,0,0,0,0,0,0,0-47.2-9.6-61-31.2-13.7-21.4-11-50.7-11-50.7h171.1v30.6s1,8.6,6.1,13.2Z"/>
  </g>
</svg>