<?xml version="1.0" encoding="UTF-8"?>
<svg id="Modo_de_isolamento" xmlns="http://www.w3.org/2000/svg" xmlns:xlink="http://www.w3.org/1999/xlink" version="1.1" viewBox="0 0 4870 1021">
  <!-- Generator: Adobe Illustrator 30.1.0, SVG Export Plug-In . SVG Version: 2.1.1 Build 136)  -->
  <defs>
    <style>
      .st0 {
        fill: none;
      }

      .st1 {
        fill: url(#Gradiente_sem_nome_74);
      }

      .st2 {
        fill: url(#Gradiente_sem_nome_73);
      }

      .st3 {
        fill: url(#Gradiente_sem_nome_72);
      }

      .st4 {
        fill: url(#Gradiente_sem_nome_71);
      }

      .st5 {
        fill: url(#Gradiente_sem_nome_78);
      }

      .st6 {
        fill: url(#Gradiente_sem_nome_77);
      }

      .st7 {
        fill: url(#Gradiente_sem_nome_76);
      }

      .st8 {
        fill: url(#Gradiente_sem_nome_75);
      }

      .st9 {
        fill: url(#Gradiente_sem_nome_15);
      }

      .st10 {
        fill: url(#Gradiente_sem_nome_19);
      }

      .st10, .st11, .st12, .st13 {
        fill-rule: evenodd;
      }

      .st14 {
        fill: url(#Gradiente_sem_nome_7);
      }

      .st11 {
        fill: #00388a;
      }

      .st12 {
        fill: #9a999e;
      }

      .st15 {
        fill: #fff;
      }

      .st13, .st16 {
        fill: #00408f;
      }

      .st17 {
        fill: #004d98;
      }

      .st18 {
        fill: #bf0811;
      }
    </style>
    <linearGradient id="Gradiente_sem_nome_19" data-name="Gradiente sem nome 19" x1="1120.5" y1="137.1" x2="1120.5" y2="803.7" gradientUnits="userSpaceOnUse">
      <stop offset="0" stop-color="#00357a"/>
      <stop offset=".2" stop-color="#005ca4"/>
      <stop offset=".3" stop-color="#0461a8"/>
      <stop offset=".4" stop-color="#1070b4"/>
      <stop offset=".4" stop-color="#2588c7"/>
      <stop offset=".5" stop-color="#3fa7e0"/>
      <stop offset=".6" stop-color="#2689c8"/>
      <stop offset=".6" stop-color="#1170b4"/>
      <stop offset=".7" stop-color="#0461a8"/>
      <stop offset=".7" stop-color="#005ca4"/>
      <stop offset="1" stop-color="#003b85"/>
    </linearGradient>
    <linearGradient id="Gradiente_sem_nome_7" data-name="Gradiente sem nome 7" x1="4503.7" y1="612" x2="4503.7" y2="305.8" gradientUnits="userSpaceOnUse">
      <stop offset="0" stop-color="#00357a"/>
      <stop offset=".3" stop-color="#005ca4"/>
      <stop offset=".3" stop-color="#0461a8"/>
      <stop offset=".4" stop-color="#1070b4"/>
      <stop offset=".5" stop-color="#2588c7"/>
      <stop offset=".5" stop-color="#3fa7e0"/>
      <stop offset=".6" stop-color="#2689c8"/>
      <stop offset=".7" stop-color="#1170b4"/>
      <stop offset=".7" stop-color="#0461a8"/>
      <stop offset=".8" stop-color="#005ca4"/>
      <stop offset="1" stop-color="#003b85"/>
    </linearGradient>
    <linearGradient id="Gradiente_sem_nome_71" data-name="Gradiente sem nome 7" x1="2756.7" y1="609.7" x2="2756.7" y2="343.4" xlink:href="#Gradiente_sem_nome_7"/>
    <linearGradient id="Gradiente_sem_nome_15" data-name="Gradiente sem nome 15" x1="2361.1" y1="614.9" x2="2361.1" y2="301.6" gradientUnits="userSpaceOnUse">
      <stop offset="0" stop-color="#00357a"/>
      <stop offset=".2" stop-color="#005ca4"/>
      <stop offset=".3" stop-color="#0461a8"/>
      <stop offset=".3" stop-color="#1070b4"/>
      <stop offset=".4" stop-color="#2588c7"/>
      <stop offset=".5" stop-color="#3fa7e0"/>
      <stop offset=".5" stop-color="#2689c8"/>
      <stop offset=".6" stop-color="#1170b4"/>
      <stop offset=".7" stop-color="#0461a8"/>
      <stop offset=".7" stop-color="#005ca4"/>
      <stop offset="1" stop-color="#003b85"/>
    </linearGradient>
    <linearGradient id="Gradiente_sem_nome_72" data-name="Gradiente sem nome 7" x1="3148.6" y1="611.6" x2="3148.6" y2="346.1" xlink:href="#Gradiente_sem_nome_7"/>
    <linearGradient id="Gradiente_sem_nome_73" data-name="Gradiente sem nome 7" x1="4113.3" y1="611.6" x2="4113.3" y2="349.1" xlink:href="#Gradiente_sem_nome_7"/>
    <linearGradient id="Gradiente_sem_nome_74" data-name="Gradiente sem nome 7" x1="3627.7" y1="611" x2="3627.7" y2="347.6" xlink:href="#Gradiente_sem_nome_7"/>
    <linearGradient id="Gradiente_sem_nome_75" data-name="Gradiente sem nome 7" x1="2756.7" y1="609.7" x2="2756.7" y2="343.4" xlink:href="#Gradiente_sem_nome_7"/>
    <linearGradient id="Gradiente_sem_nome_76" data-name="Gradiente sem nome 7" x1="3148.6" y1="611.6" x2="3148.6" y2="346.1" xlink:href="#Gradiente_sem_nome_7"/>
    <linearGradient id="Gradiente_sem_nome_77" data-name="Gradiente sem nome 7" x1="4113.3" y1="611.6" x2="4113.3" y2="349.1" xlink:href="#Gradiente_sem_nome_7"/>
    <linearGradient id="Gradiente_sem_nome_78" data-name="Gradiente sem nome 7" x1="3627.7" y1="611" x2="3627.7" y2="347.6" xlink:href="#Gradiente_sem_nome_7"/>
  </defs>
  <path class="st12" d="M4699.3,904.3s0,0,0,0c0,0,0,0,0,0,0,0,0,0,0,0,0,0,0,0,0,0"/>
  <path class="st12" d="M4699.3,904.3s0,0,0,0c0,0,0,0,0,0,0,0,0,0,0,0,0,0,0,0,0,0"/>
  <g>
    <path class="st12" d="M1782.2,484.6s0,0,0,0,0,0,0,0c0,0,0,0,0,0,0,0,0,0,0,0"/>
    <path class="st12" d="M1782.2,484.6s0,0,0,0,0,0,0,0c0,0,0,0,0,0,0,0,0,0,0,0"/>
    <path class="st12" d="M2042.8,376s0,0,0,0,0,0,0,0,0,0,0,0,0,0,0,0"/>
    <path class="st12" d="M2042.8,376s0,0,0,0,0,0,0,0,0,0,0,0,0,0,0,0"/>
    <polyline class="st12" points="3128.2 543.2 3128.2 543.2 3128.2 543.2 3128.2 543.2 3128.2 543.2"/>
    <polyline class="st12" points="3128.2 543.2 3128.2 543.2 3128.2 543.2 3128.2 543.2 3128.2 543.2"/>
    <path class="st12" d="M1363.7,390.6c0,0,0,0-.1,0s-.1,0-.1,0,0,0,.1,0,.1,0,.1,0"/>
    <path class="st12" d="M1363.7,390.6c0,0,0,0-.1,0s-.1,0-.1,0,0,0,.1,0,.1,0,.1,0"/>
    <g>
      <path class="st13" d="M4585.5,750.5h-248.8v135h35.7v-53.3h213.1c12,0,20.5-8.9,20.5-18.5v-44.7c0-9.5-8.6-18.5-20.5-18.5ZM4560.7,800.7h-188.4v-15.2h188.4c4.8,0,7.8,3.9,7.8,7.6s-3.1,7.6-7.8,7.6Z"/>
      <rect class="st16" x="4281.2" y="750.6" width="37.5" height="134.9"/>
      <polygon class="st13" points="4225.1 800.3 4035.2 800.3 4035.2 750.6 3997.7 750.6 3997.7 885.5 4035.2 885.5 4035.2 834 4225.1 834 4225.1 885.5 4262.7 885.5 4262.7 750.6 4225.1 750.6 4225.1 800.3"/>
      <path class="st13" d="M3710.9,776.8v82.5c0,13.5,12,26.3,29,26.3h238.4v-37.7h-223.8c-2,0-3.1-1.8-3.1-3.3v-53.1c0-1.4,1.2-3.3,3.1-3.3h223.8v-37.7h-238.4c-17,0-29,12.8-29,26.3Z"/>
      <path class="st13" d="M3524.2,832.2c12,0,20.5-8.9,20.5-18.5v-44.7c0-9.5-8.6-18.5-20.5-18.5h-246.6v135h35.7v-53.3h171.2l26.2,53.3h39.6l-26.2-53.3h.2ZM3499.4,800.7h-186.2v-15.2h186.2c4.8,0,7.8,3.9,7.8,7.6s-3.1,7.6-7.8,7.6Z"/>
      <polygon class="st13" points="2994.7 885.5 3265 885.5 3265 847.2 3035 847.2 3035 830.5 3265 830.5 3265 798.7 3035 798.7 3035 782.3 3265 782.3 3265 750.6 2994.7 750.6 2994.7 885.5"/>
      <path class="st13" d="M2938.8,842.2c0,2.8-2.3,5.9-6,5.9h-68.1v-97.6h-38.3v97.6h-68.1c-3.7,0-6-3.1-6-5.9v-91.7h-39.7v112.3c0,11.7,10.4,22.7,25.1,22.7h218.2c14.7,0,25.1-11,25.1-22.7v-112.3h-42.1v91.7Z"/>
      <path class="st13" d="M2667.5,750.6h-210.2c-17,0-29,12.8-29,26.3v82.5c0,13.5,12,26.3,29,26.3h210.2c17,0,29-12.8,29-26.3v-82.5c0-13.5-12-26.3-29-26.3ZM2656,844.6c0,1.4-1.2,3.3-3.1,3.3h-181c-2,0-3.1-1.8-3.1-3.3v-53.1c0-1.4,1.2-3.3,3.1-3.3h181c2,0,3.1,1.8,3.1,3.3v53.1Z"/>
      <path class="st13" d="M2392.9,750.5h-246.6v135h35.7v-53.3h211c12,0,20.5-8.9,20.5-18.5v-44.7c0-9.5-8.5-18.5-20.5-18.5ZM2368.1,800.7h-186.2v-15.2h186.2c4.8,0,7.8,3.9,7.8,7.6s-3.1,7.6-7.8,7.6Z"/>
    </g>
    <path class="st10" d="M1120.5,137.1c540.3,0,978.5,149.3,978.5,333.3s-438.2,333.3-978.5,333.3S142,654.5,142,470.4s438.2-333.3,978.5-333.3Z"/>
    <rect class="st17" x="2656.4" y="305" width="201" height="32"/>
    <path class="st15" d="M1953.7,481.6v-31c0-24.7-6.2-43.9-21.1-57.5-14.9-13.6-40.1-24.6-77.1-32.9-37-8.3-83.6-12.4-140.5-12.4s-87.4,3.4-123.2,10.3c-35.8,6.8-62.2,16.7-78,29.6-15.6,12.9-24,30.4-24,52.7v74.4c0,19,4,33.4,11,43.4,7,9.9,20,19,38.3,27.3,18.2,8.3,43.8,14.8,76.6,19.5,32.9,4.7,70.7,7.1,113.5,7.1s81.1-2.4,110.2-7.2c29.3-4.8,53.5-12,72.7-21.6,19-9.6,29.8-18.6,35-27.1,5.1-8.5,6.5-20.6,6.5-36.3v-18.9h-190.1v33.8c0,12.7-2.5,21.2-7.6,25.6-5.1,4.4-15.3,6.6-30.7,6.6s-20.9-1.7-25.3-5c-4.3-3.3-6.7-10.8-6.7-22.3v-58h260.4ZM1693.3,424.3c0-14.4,1.9-23.2,5.4-26.4,3.3-3.3,12.1-4.9,26.2-4.9s18.8,2,22.5,5.8c3.6,3.9,5.4,12.4,5.4,25.6v19.6h-59.5v-19.6Z"/>
    <path class="st15" d="M1424.1,346.3v235.4c0,27.7-1.2,46.4-3.8,56.2-2.6,9.8-10.3,18.4-23.1,25.8-12.9,7.4-30.2,12.9-51.8,16.5-21.6,3.5-54,5.4-97.2,5.4h-78.3v-47.5c24.2,0,37.7-1.2,40.8-3.6,2.9-2.4,4.5-17.4,4.5-44.9v-243.3h208.9Z"/>
    <rect class="st15" x="1215.2" y="304.1" width="208.9" height="31.7"/>
    <path class="st15" d="M873.7,349.1l.5,24.2c14.6-9.7,32.6-16.9,53.8-21.7,21.4-4.8,45.9-7.2,73.7-7.2s63.2,3.2,85.4,9.7c22.1,6.4,36.3,14.6,42.7,24.4,6.3,9.9,9.4,26.3,9.4,49.3v184.4h-202.8v-182.1c0-18.1-1.5-29.2-4.6-33.2-2.9-3.9-11.3-6-25-6s-23.5,2.3-27.1,6.9c-3.8,4.5-5.5,16.7-5.5,36.5v177.8h-202.9v-263.1h202.4Z"/>
    <rect class="st15" x="389.5" y="348.7" width="208.9" height="263.4"/>
    <rect class="st15" x="389.5" y="303.2" width="208.9" height="33.5"/>
    <path class="st18" d="M4523.5,641.7h81.9l-4.8,15.8h-51.2l-3.5,11.8h47.5l-4.5,15.1h-47.5l-4.4,14.6h52.7l-5,16.7h-83.4l22.3-73.9ZM4468.7,685.4l25,6c-3.5,5.6-7.7,10.3-12.8,14.1-5,3.8-10.7,6.6-17,8.5-6.3,1.9-13.9,2.9-22.8,2.9s-19.2-1.2-25.4-3.5c-6.1-2.3-10.8-6.5-14-12.3-3.2-5.9-3.4-13.4-.7-22.6,3.7-12.2,10.9-21.6,21.6-28.2,10.7-6.6,24-9.8,40-9.8s21.7,1.9,27.8,5.6c6,3.8,9.6,9.6,10.7,17.4l-28.3,4.5c-.3-2.2-.8-3.9-1.5-4.9-1.2-1.7-2.9-3.1-5.1-4-2.2-.9-4.8-1.4-7.9-1.4-7,0-12.9,2.1-17.9,6.2-3.7,3.1-6.6,7.9-8.6,14.5-2.5,8.2-2.5,13.8,0,16.8,2.4,3,6.7,4.5,12.7,4.5s10.7-1.2,14.4-3.7c3.7-2.4,7-6,9.7-10.7ZM4300.8,641.7h28.6l24.9,40.8,12.3-40.8h28.9l-22.3,73.9h-28.9l-24.7-40.6-12.2,40.6h-28.8l22.3-73.9ZM4233.6,687.4l-2.8-26.6-18.9,26.6h21.7ZM4235.3,703.4h-34.7l-8.7,12.2h-31.3l59.6-73.9h33.5l14.9,73.9h-32.1l-1.3-12.2ZM4062,641.7h40.4l1.8,45,29-45h40.2l-22.3,73.9h-25l17-56.4-36.3,56.4h-22.7l-2.3-56.4-17,56.4h-25l22.3-73.9ZM3976.8,671.7h12.9c1.4,0,4.2-.3,8.4-1,2.1-.3,4-1.1,5.7-2.3,1.7-1.3,2.7-2.7,3.2-4.3.7-2.4.3-4.2-1.4-5.5-1.6-1.3-5.3-1.9-10.9-1.9h-13.5l-4.5,15.1ZM3932.8,715.6l22.3-73.9h51c9.5,0,16.5.6,21.1,1.8,4.6,1.2,8,3.5,10.1,6.7,2.1,3.3,2.4,7.3,1,12-1.2,4.1-3.5,7.6-6.7,10.6-3.2,3-7.2,5.4-11.9,7.3-3,1.2-6.9,2.2-11.6,2.9,3.4.9,5.8,1.8,7.1,2.7.9.6,2.2,1.9,3.7,3.9,1.5,2,2.5,3.5,2.9,4.6l8.4,21.4h-34.6l-9.6-22.5c-1.2-2.9-2.5-4.8-3.8-5.7-1.9-1.1-4.2-1.7-7-1.7h-2.7l-9,29.9h-30.7ZM3855,678.8c-2.2,7.5-2,12.8.7,16.1,2.8,3.3,7.3,4.9,13.7,4.9s12.2-1.6,16.7-4.8c4.6-3.2,8.1-8.9,10.6-17.2,2.1-7,1.7-12-1.1-15.2-2.8-3.2-7.4-4.8-13.9-4.8s-11.7,1.6-16.4,4.9c-4.7,3.3-8.2,8.7-10.5,16.2ZM3824.4,678.7c3.6-12.1,11-21.5,22-28.2,11-6.7,24.6-10.1,40.7-10.1s28.2,3.3,35.1,9.9c6.9,6.6,8.6,15.9,5,27.8-2.6,8.6-6.7,15.7-12.2,21.2-5.6,5.5-12.5,9.8-20.8,12.9-8.3,3.1-17.9,4.6-28.9,4.6s-20-1.3-26.5-4c-6.5-2.7-11.2-6.9-14-12.6-2.8-5.7-2.9-12.9-.3-21.6ZM3747.3,641.7h75.7l-4.8,15.9h-45l-3.9,12.9h38.5l-4.5,15h-38.5l-9.1,30.2h-30.7l22.3-73.9ZM3661.6,671.7h12.9c1.4,0,4.2-.3,8.4-1,2.1-.3,4-1.1,5.7-2.3,1.7-1.3,2.7-2.7,3.2-4.3.7-2.4.3-4.2-1.4-5.5-1.6-1.3-5.3-1.9-10.9-1.9h-13.5l-4.5,15.1ZM3617.6,715.6l22.3-73.9h51c9.5,0,16.5.6,21.1,1.8,4.6,1.2,8,3.5,10.1,6.7,2.1,3.3,2.4,7.3,1,12-1.2,4.1-3.5,7.6-6.7,10.6-3.2,3-7.2,5.4-11.9,7.3-3,1.2-6.9,2.2-11.6,2.9,3.4.9,5.8,1.8,7.1,2.7.9.6,2.2,1.9,3.7,3.9,1.5,2,2.5,3.5,2.9,4.6l8.4,21.4h-34.6l-9.6-22.5c-1.2-2.9-2.5-4.8-3.8-5.7-1.9-1.1-4.2-1.7-7-1.7h-2.7l-9,29.9h-30.7ZM3539.6,641.7h81.9l-4.8,15.8h-51.2l-3.5,11.8h47.5l-4.5,15.1h-47.5l-4.4,14.6h52.7l-5,16.7h-83.4l22.3-73.9ZM3460.7,673.3h7.5c5.9,0,10.4-.8,13.2-2.3,2.9-1.5,4.7-3.5,5.4-5.9.7-2.3.3-4.3-1.4-5.9-1.6-1.6-5.3-2.4-11-2.4h-8.8l-5,16.5ZM3439.5,641.7h50.9c11.1,0,18.8,2,23.2,5.9,4.3,3.9,5.4,9.6,3.2,16.8-2.3,7.5-7,13.3-14.3,17.5-7.3,4.2-17.1,6.3-29.5,6.3h-16.8l-8.2,27.4h-30.7l22.3-73.9Z"/>
    <g>
      <path class="st11" d="M4720.5,298.3c-2.8-3.7-5-6.3-6.6-7.7-1.6-1.4-3.7-2.8-6.2-4,5-.6,8.8-2.1,11.4-4.4,2.5-2.3,3.8-5.3,3.8-8.8s-.8-5.3-2.5-7.5c-1.7-2.2-3.9-3.7-6.7-4.5-2.8-.9-7.2-1.3-13.4-1.3h-24.4v47.5h11.6v-19.8h2.3c2.7,0,4.6.2,5.8.5,1.2.4,2.4,1,3.5,2,1.1,1,3.1,3.3,6.1,7l8.4,10.3h13.9l-7-9.3ZM4696.1,280.1h-8.6v-12h9c4.7,0,7.5,0,8.5.2,1.9.3,3.3.9,4.4,1.9,1,1,1.5,2.3,1.5,3.9s-.4,2.6-1.2,3.6c-.8,1-1.9,1.6-3.2,2-1.4.4-4.9.6-10.4.6Z"/>
      <path class="st11" d="M4699.8,238.6c-25.7,0-46.6,20.9-46.6,46.6s20.9,46.6,46.6,46.6,46.6-20.9,46.6-46.6-20.9-46.6-46.6-46.6ZM4699.8,323.5c-21.2,0-38.4-17.2-38.4-38.4s17.2-38.4,38.4-38.4,38.4,17.2,38.4,38.4-17.2,38.4-38.4,38.4Z"/>
    </g>
    <path class="st0" d="M3149.4,391.4c-14.1,0-23.2,1.6-26.4,4.9-3.4,3.3-5.3,12.1-5.3,26.6v18.5h57.8v-18.5c0-13.3-.9-21.8-4.5-25.7-3.8-3.8-10.3-5.8-21.6-5.8Z"/>
    <path class="st0" d="M2384.9,403.4c-4-3.2-12.1-4.8-23.9-4.8s-19.9,1.4-23.8,4.3c-4,2.8-6.6,9.2-6.6,19.1v123.3c0,10.2,2.7,17,6.6,20.2,3.8,3.2,11.7,4.9,22.5,4.9s20.7-1.8,25-5.4c4.1-3.6,6.1-12.4,6.1-26.4v-116.5c0-9.3-1.8-15.4-5.9-18.6Z"/>
    <path class="st0" d="M3626.9,395.1c4.2,0,8.2.3,12,.6-3.4-.4-7.3-.6-12-.6Z"/>
    <path class="st0" d="M4115.3,394c-14.1,0-23.6,1.6-26.9,4.9-3.4,3.3-6.1,12-6.1,26.3v18.8h60.3v-18.8c0-13.1-1.5-21.6-5.1-25.4-3.8-3.8-10.9-5.7-22.2-5.7Z"/>
    <polygon class="st14" points="4404.6 305.8 4403.5 609.6 4493.6 611.8 4603.9 612 4603.9 305.8 4404.6 305.8"/>
    <rect class="st4" x="2656.3" y="343.4" width="201" height="266.3"/>
    <path class="st9" d="M2390.8,374.5c-17.6-6.8-34.6-11.9-54.7-15.3-20.1-3.4-42.1-5.1-66.3-5.1s-58,3-80.6,9.2c-22.6,6.2-37.1,13.3-43.4,21.4-6.3,8.1-9.6,21.8-9.6,41.1v117.8c0,18.6,3.4,32,9.6,40.2,6.3,8.2,20.6,15.5,42.8,21.7,22.3,6.3,48.5,9.4,78.9,9.4s43.8-1.9,64.4-5.7c20.6-3.8,41.2-9.5,58.8-17v17.6h195.1v-308.1h-195.1v72.9ZM2390.8,538.5c0,14-1.9,22.9-6,26.4-4.3,3.6-12.6,5.4-25.1,5.4s-18.9-1.6-22.7-4.9c-4-3.2-6.5-10-6.5-20.2v-123.3c0-9.9,2.8-16.3,6.7-19.1,4-2.8,12.2-4.3,23.7-4.3s19.9,1.6,23.8,4.8c4.1,3.2,6,9.3,6,18.6v116.5Z"/>
    <path class="st3" d="M3280.4,358.5c-37-8.3-84-12.5-140.9-12.5s-87.6,3.4-123.4,10.4c-35.8,6.9-61.4,16.8-77.1,29.7-15.6,12.9-23.1,30.6-23.1,53v74.8c0,19.1,3.1,33.6,10.1,43.6,7,10,19.5,19.1,37.9,27.4,18.2,8.3,43.6,14.8,76.4,19.6,32.9,4.7,70.6,7.1,113.4,7.1s81.1-2.4,110.2-7.3c29.3-4.8,53.5-12.1,72.7-21.7,19-9.7,31.5-18.7,36.7-27.2,5.1-8.5,8.2-20.7,8.2-36.5v-18.1h-193.4v33c0,12.7-2.5,21.3-7.7,25.8-5.1,4.4-15.3,6.7-30.8,6.7s-20.8-1.7-25.3-5c-4.3-3.4-6.6-10.8-6.6-22.4v-57.2h263.8v-32.2c0-24.9-7.9-44.1-22.8-57.8-14.9-13.7-41.1-24.7-78.2-33ZM3175.4,441.4h-57.8v-18.5c0-14.4,1.9-23.3,5.3-26.6,3.3-3.3,12.1-4.9,26.1-4.9s18,2,21.8,5.8c3.6,3.9,4.6,12.5,4.6,25.7v18.5Z"/>
    <path class="st2" d="M4246.8,361.4c-37-8.2-84-12.3-140.9-12.3s-87.6,3.4-123.4,10.2c-35.8,6.8-62.2,16.6-78,29.4-15.6,12.8-24,30.2-24,52.4v73.9c0,18.8,3.9,33.2,11,43.1,7,9.8,20,18.9,38.3,27.1,18.2,8.2,43.8,14.7,76.6,19.4,32.9,4.7,70.7,7,113.5,7s81.1-2.3,110.2-7.2c29.3-4.8,53.5-11.9,72.7-21.4,19-9.6,30.7-18.5,35.8-26.9,5.1-8.4,7.4-20.5,7.4-36.1v-19.1h-191.8v33.9c0,12.6-2.5,21.1-7.7,25.5-5.1,4.4-15.3,6.6-30.7,6.6s-21.7-1.7-26.1-5c-4.3-3.3-7.5-10.7-7.5-22.2v-58.1h263.8v-30.4c0-24.6-7-43.6-22-57.2-14.9-13.6-40.3-24.4-77.3-32.7ZM4142.6,443.9h-60.3v-18.8c0-14.3,2.3-22.9,6.1-26.3s12.5-4.9,26.6-4.9,18.6,2,22.4,5.7c3.6,3.8,5.2,12.3,5.2,25.4v18.8Z"/>
    <path class="st1" d="M3608.6,560.6c3.4,3,10.3,4.8,23.5,4.8s20.4.2,23.7-4c2.3-3.2,3.6-7.8,3.6-13.6,0-12.4-3.3-20.1-10.2-23.2-7.3-3.1-44.3-12.3-111.1-27.6-48.8-11.3-81-21.6-96.6-31.1-.1,0-.2-.1-.3-.2,0,0-.1,0-.2-.1-2.1-1.3-3.9-2.6-5.4-3.9-.2-.2-.5-.4-.7-.6-2.8-2.4-5.3-4.9-7.3-7.5,0,0-.1,0-.1,0h0c-10.9-14.1-11.4-31.8-8.4-47.4,3.9-20.6,21.6-30.6,21.6-30.6,0,0,0,0,0,0,1.8-1.2,4-2.3,6.5-3.4,13.5-6.8,32.5-12.3,57.2-16.5,24.6-4.1,52.3-6.7,83.1-7.6,6.8-.3,12.7-.5,17.2-.3,3.3,0,6.7,0,10.1,0,41.4,0,77,2.2,106,6.5,29.2,4.4,51.7,10.1,67.2,17.2,10.7,4.9,17.6,8.8,22.7,12.9,3.7,3,7.1,7.2,8.4,9.7,3.3,6,5.3,14.6,5.3,27.4v15.1h-166.6v-16.7s.5-15.6-4.4-19.5c-3-2.4-7.6-3.7-14.4-4.4-3.4-.4-7.3-.6-11.9-.6-10.7,0-18.6,1.4-23.9,4.3-4.2,2.3-6.6,5-7.6,9.6-.1.9-.3,1.8-.3,2.4-.7,12.3,3.7,19.5,10.6,22.6,7.3,3.1,44.4,12.3,111.1,27.6,37.7,8.7,65.5,16.9,83.4,24.5,4.7,1.9,8.6,3.8,11.9,5.7,17,9.8,25.6,23.9,25.6,42.5s-5.5,34.2-18.1,45.4c-2.9,2.6-9.4,6.9-16.3,9.6-13.1,5.9-30.6,10-52.9,13.7-24.6,4.1-52.3,6.7-83.1,7.6-6.8.3-12.7.5-17.2.3-3.3,0-6.7,0-10.1,0-41.4,0-76.9-2.2-106-6.5-11.3-1.7-21.6-3.7-30.9-5.8.1,0,0,0,0,0,0,0-47.2-9.6-61-31.2-13.7-21.4-11-50.7-11-50.7h171.1v30.6s1,8.6,6.1,13.2Z"/>
  </g>
  <path class="st15" d="M3864.3,587.6c4.1,4.7,8.8,9.1,14.2,13.4-3.5.2-6.9.5-10.2,1h-14.7c4.1-4.5,7.6-9.3,10.6-14.3ZM4363.9,588.1v13.9h-15.7c6.1-4.5,11.4-9.1,15.7-13.9ZM4699.8,371.4c22.8,0,43.6-8.9,59.1-23.5.5-.5,1-1,1.4-1.6l6.2-7.9c4.5-5.7,8.4-11.9,11.5-18.5l2.6-5.3c.6-1.2,1.1-2.3,1.4-3.6,3.1-9.6,4.5-20,3.9-30.7-2.4-44.1-38.3-79.5-82.4-81.4-23.2-1-44.6,7.3-60.6,21.4l-2.7,2.5-3.9,4c-10,10.9-17.2,24.3-20.6,39.2h-250.6l-.4,114c-4-5.5-8.7-10.7-13.9-15.4-20.4-18.6-51.6-32.3-95.4-42-39.7-8.8-90-13.3-149.5-13.3s-92.9,3.7-130.8,10.9c-43.2,8.2-74.5,20.5-95.6,37.5h-.2c-8.7,7.3-16.1,15.4-21.9,24.4-1-2.5-2.2-5-3.5-7.3-4-7.5-10.8-15.5-18.2-21.5l-.3-.2c-7.7-6.2-16.7-11.4-31-18-18.9-8.7-44.4-15.4-77.9-20.4-31-4.6-68.6-6.9-111.8-6.9s-6.5,0-9.8,0c-1.3,0-2.7,0-4.1,0-4.4,0-9.4.1-15,.4-32.3,1-62,3.7-88.1,8.1-21.9,3.7-40.1,8.4-55.2,14.2l-1.7-1-15.9,9c-1.5.8-3,1.6-4.4,2.5-4.3,2.5-18,11.3-28.6,27.7-2.1-2.3-4.3-4.5-6.6-6.6-20.3-18.6-51.8-32.5-96.3-42.5-39.7-8.9-90-13.4-149.6-13.4s-92.9,3.7-130.9,11.1c-42.5,8.1-73.5,20.6-94.8,38h-.2c-6.3,5.3-11.8,11.1-16.5,17.4v-107.6h-271.5v-3.4h-274.5v59.7c-2.7-.5-5.5-1.1-8.3-1.5-22.4-3.8-46.3-5.7-73-5.7s-64.8,3.5-91,10.6c-32.4,8.8-52.2,19.7-64.3,35.4-3,3.8-5.5,8-7.8,12.6-14.8-21.9-34.9-43.1-59.8-63.1-52.9-42.6-127.5-80.5-221.8-112.6-188.8-64.3-439.1-99.7-704.6-99.7s-515.8,35.4-704.6,99.7c-94.3,32.1-168.9,70-221.8,112.6-28.6,23-50.9,47.6-66.1,73-17,28.2-25.6,57.7-25.6,87.6s8.6,59.4,25.6,87.6c15.3,25.4,37.5,50,66.1,73,52.9,42.6,127.5,80.5,221.8,112.6,188.8,64.3,439.1,99.7,704.6,99.7s515.8-35.4,704.6-99.7c94.3-32.1,168.9-70,221.8-112.6,21.4-17.2,39.2-35.3,53.3-53.9,2.9,12,7.6,22.2,14.1,30.7,11.9,15.7,32.1,27,63.6,35.8,25.6,7.2,55.7,10.9,89.6,10.9s48.9-2.1,71.6-6.4c4-.7,8-1.5,11.9-2.4v3.6h545.8v-64.6c11.4,14.1,27.9,26,50.5,36.2,21.8,10,50.3,17.4,87.1,22.7,34.6,5,74.7,7.5,119.1,7.5s85.3-2.5,116.7-7.8c33.4-5.5,60.9-13.8,84-25.4h.2c24.5-12.6,40.1-24.3,49.6-37.7,1.4,2.8,3,5.7,4.8,8.4,3,4.6,6.5,9,10.7,13h-9.7l-32.8,108.9h-139.3s-217.3,0-217.3,0h-347.7v.2c-1.8-.1-3.6-.2-5.4-.2h-210.2c-12.1,0-23.4,3-33.3,8.3-9.1-5.3-19.7-8.3-31-8.3h-286.3v214.3h115.1v-53.3h168.2c6.1,30.4,34,53.4,67.4,53.4h210.2c13,0,25.3-3.5,35.7-9.6,10,6.1,21.8,9.6,34.5,9.6h218.2c.9,0,1.8,0,2.6,0h394.5v-53.3h106.8l26.2,53.3h128l-39.2-79.8c6.1-9.1,9.7-20,9.7-31.6v-44.7c0-4.7-.6-9.3-1.7-13.7h92.3c-2.4,6.8-3.8,14-3.8,21.5v82.5c0,36.4,30.8,65.9,68.7,65.9h278.1c0,0,56.9,0,56.9,0v-51.5h110.5v51.5h172.9s53.7,0,53.7,0v-53.3h173.4c33.2,0,60.2-26.1,60.2-58.2v-44.7c0-18.1-8.7-34.4-22.2-45.1l19.5-64.8.2-.4v-57h0l.4-251.3c15.1,13,34.7,20.9,56.2,20.9ZM4074.9,760.7v-5.4h110.5v5.4h-110.5Z"/>
  <g>
    <path class="st12" d="M1782.2,484.6s0,0,0,0,0,0,0,0c0,0,0,0,0,0,0,0,0,0,0,0"/>
    <path class="st12" d="M1782.2,484.6s0,0,0,0,0,0,0,0c0,0,0,0,0,0,0,0,0,0,0,0"/>
    <path class="st12" d="M2042.8,376s0,0,0,0,0,0,0,0,0,0,0,0,0,0,0,0"/>
    <path class="st12" d="M2042.8,376s0,0,0,0,0,0,0,0,0,0,0,0,0,0,0,0"/>
    <polyline class="st12" points="3128.2 543.2 3128.2 543.2 3128.2 543.2 3128.2 543.2 3128.2 543.2"/>
    <polyline class="st12" points="3128.2 543.2 3128.2 543.2 3128.2 543.2 3128.2 543.2 3128.2 543.2"/>
    <path class="st12" d="M562.7,724.4s0,0,0,0,0,0,0,0c0,0,0,0,0,0,0,0,0,0,0,0"/>
    <path class="st12" d="M562.7,724.4s0,0,0,0,0,0,0,0c0,0,0,0,0,0,0,0,0,0,0,0"/>
    <path class="st12" d="M1363.7,390.6c0,0,0,0-.1,0s-.1,0-.1,0,0,0,.1,0,.1,0,.1,0"/>
    <path class="st12" d="M1363.7,390.6c0,0,0,0-.1,0s-.1,0-.1,0,0,0,.1,0,.1,0,.1,0"/>
    <g>
      <path class="st13" d="M4585.5,750.5h-248.8v135h35.7v-53.3h213.1c12,0,20.5-8.9,20.5-18.5v-44.7c0-9.5-8.6-18.5-20.5-18.5ZM4560.7,800.7h-188.4v-15.2h188.4c4.8,0,7.8,3.9,7.8,7.6s-3.1,7.6-7.8,7.6Z"/>
      <rect class="st16" x="4281.2" y="750.6" width="37.5" height="134.9"/>
      <polygon class="st13" points="4225.1 800.3 4035.2 800.3 4035.2 750.6 3997.7 750.6 3997.7 885.5 4035.2 885.5 4035.2 834 4225.1 834 4225.1 885.5 4262.7 885.5 4262.7 750.6 4225.1 750.6 4225.1 800.3"/>
      <path class="st13" d="M3710.9,776.8v82.5c0,13.5,12,26.3,29,26.3h238.4v-37.7h-223.8c-2,0-3.1-1.8-3.1-3.3v-53.1c0-1.4,1.2-3.3,3.1-3.3h223.8v-37.7h-238.4c-17,0-29,12.8-29,26.3Z"/>
      <path class="st13" d="M3524.2,832.2c12,0,20.5-8.9,20.5-18.5v-44.7c0-9.5-8.6-18.5-20.5-18.5h-246.6v135h35.7v-53.3h171.2l26.2,53.3h39.6l-26.2-53.3h.2ZM3499.4,800.7h-186.2v-15.2h186.2c4.8,0,7.8,3.9,7.8,7.6s-3.1,7.6-7.8,7.6Z"/>
      <polygon class="st13" points="2994.7 885.5 3265 885.5 3265 847.2 3035 847.2 3035 830.5 3265 830.5 3265 798.7 3035 798.7 3035 782.3 3265 782.3 3265 750.6 2994.7 750.6 2994.7 885.5"/>
      <path class="st13" d="M2938.8,842.2c0,2.8-2.3,5.9-6,5.9h-68.1v-97.6h-38.3v97.6h-68.1c-3.7,0-6-3.1-6-5.9v-91.7h-39.7v112.3c0,11.7,10.4,22.7,25.1,22.7h218.2c14.7,0,25.1-11,25.1-22.7v-112.3h-42.1v91.7Z"/>
      <path class="st13" d="M2667.5,750.6h-210.2c-17,0-29,12.8-29,26.3v82.5c0,13.5,12,26.3,29,26.3h210.2c17,0,29-12.8,29-26.3v-82.5c0-13.5-12-26.3-29-26.3ZM2656,844.6c0,1.4-1.2,3.3-3.1,3.3h-181c-2,0-3.1-1.8-3.1-3.3v-53.1c0-1.4,1.2-3.3,3.1-3.3h181c2,0,3.1,1.8,3.1,3.3v53.1Z"/>
      <path class="st13" d="M2392.9,750.5h-246.6v135h35.7v-53.3h211c12,0,20.5-8.9,20.5-18.5v-44.7c0-9.5-8.5-18.5-20.5-18.5ZM2368.1,800.7h-186.2v-15.2h186.2c4.8,0,7.8,3.9,7.8,7.6s-3.1,7.6-7.8,7.6Z"/>
    </g>
    <path class="st10" d="M1120.5,137.1c540.3,0,978.5,149.3,978.5,333.3s-438.2,333.3-978.5,333.3S142,654.5,142,470.4s438.2-333.3,978.5-333.3Z"/>
    <rect class="st17" x="2656.4" y="305" width="201" height="32"/>
    <path class="st15" d="M1953.7,481.6v-31c0-24.7-6.2-43.9-21.1-57.5-14.9-13.6-40.1-24.6-77.1-32.9-37-8.3-83.6-12.4-140.5-12.4s-87.4,3.4-123.2,10.3c-35.8,6.8-62.2,16.7-78,29.6-15.6,12.9-24,30.4-24,52.7v74.4c0,19,4,33.4,11,43.4,7,9.9,20,19,38.3,27.3,18.2,8.3,43.8,14.8,76.6,19.5,32.9,4.7,70.7,7.1,113.5,7.1s81.1-2.4,110.2-7.2c29.3-4.8,53.5-12,72.7-21.6,19-9.6,29.8-18.6,35-27.1,5.1-8.5,6.5-20.6,6.5-36.3v-18.9h-190.1v33.8c0,12.7-2.5,21.2-7.6,25.6-5.1,4.4-15.3,6.6-30.7,6.6s-20.9-1.7-25.3-5c-4.3-3.3-6.7-10.8-6.7-22.3v-58h260.4ZM1693.3,424.3c0-14.4,1.9-23.2,5.4-26.4,3.3-3.3,12.1-4.9,26.2-4.9s18.8,2,22.5,5.8c3.6,3.9,5.4,12.4,5.4,25.6v19.6h-59.5v-19.6Z"/>
    <path class="st15" d="M1424.1,346.3v235.4c0,27.7-1.2,46.4-3.8,56.2-2.6,9.8-10.3,18.4-23.1,25.8-12.9,7.4-30.2,12.9-51.8,16.5-21.6,3.5-54,5.4-97.2,5.4h-78.3v-47.5c24.2,0,37.7-1.2,40.8-3.6,2.9-2.4,4.5-17.4,4.5-44.9v-243.3h208.9Z"/>
    <rect class="st15" x="1215.2" y="304.1" width="208.9" height="31.7"/>
    <path class="st15" d="M873.7,349.1l.5,24.2c14.6-9.7,32.6-16.9,53.8-21.7,21.4-4.8,45.9-7.2,73.7-7.2s63.2,3.2,85.4,9.7c22.1,6.4,36.3,14.6,42.7,24.4,6.3,9.9,9.4,26.3,9.4,49.3v184.4h-202.8v-182.1c0-18.1-1.5-29.2-4.6-33.2-2.9-3.9-11.3-6-25-6s-23.5,2.3-27.1,6.9c-3.8,4.5-5.5,16.7-5.5,36.5v177.8h-202.9v-263.1h202.4Z"/>
    <rect class="st15" x="389.5" y="348.7" width="208.9" height="263.4"/>
    <rect class="st15" x="389.5" y="303.2" width="208.9" height="33.5"/>
    <path class="st18" d="M4523.5,641.7h81.9l-4.8,15.8h-51.2l-3.5,11.8h47.5l-4.5,15.1h-47.5l-4.4,14.6h52.7l-5,16.7h-83.4l22.3-73.9ZM4468.7,685.4l25,6c-3.5,5.6-7.7,10.3-12.8,14.1-5,3.8-10.7,6.6-17,8.5-6.3,1.9-13.9,2.9-22.8,2.9s-19.2-1.2-25.4-3.5c-6.1-2.3-10.8-6.5-14-12.3-3.2-5.9-3.4-13.4-.7-22.6,3.7-12.2,10.9-21.6,21.6-28.2,10.7-6.6,24-9.8,40-9.8s21.7,1.9,27.8,5.6c6,3.8,9.6,9.6,10.7,17.4l-28.3,4.5c-.3-2.2-.8-3.9-1.5-4.9-1.2-1.7-2.9-3.1-5.1-4-2.2-.9-4.8-1.4-7.9-1.4-7,0-12.9,2.1-17.9,6.2-3.7,3.1-6.6,7.9-8.6,14.5-2.5,8.2-2.5,13.8,0,16.8,2.4,3,6.7,4.5,12.7,4.5s10.7-1.2,14.4-3.7c3.7-2.4,7-6,9.7-10.7ZM4300.8,641.7h28.6l24.9,40.8,12.3-40.8h28.9l-22.3,73.9h-28.9l-24.7-40.6-12.2,40.6h-28.8l22.3-73.9ZM4233.6,687.4l-2.8-26.6-18.9,26.6h21.7ZM4235.3,703.4h-34.7l-8.7,12.2h-31.3l59.6-73.9h33.5l14.9,73.9h-32.1l-1.3-12.2ZM4062,641.7h40.4l1.8,45,29-45h40.2l-22.3,73.9h-25l17-56.4-36.3,56.4h-22.7l-2.3-56.4-17,56.4h-25l22.3-73.9ZM3976.8,671.7h12.9c1.4,0,4.2-.3,8.4-1,2.1-.3,4-1.1,5.7-2.3,1.7-1.3,2.7-2.7,3.2-4.3.7-2.4.3-4.2-1.4-5.5-1.6-1.3-5.3-1.9-10.9-1.9h-13.5l-4.5,15.1ZM3932.8,715.6l22.3-73.9h51c9.5,0,16.5.6,21.1,1.8,4.6,1.2,8,3.5,10.1,6.7,2.1,3.3,2.4,7.3,1,12-1.2,4.1-3.5,7.6-6.7,10.6-3.2,3-7.2,5.4-11.9,7.3-3,1.2-6.9,2.2-11.6,2.9,3.4.9,5.8,1.8,7.1,2.7.9.6,2.2,1.9,3.7,3.9,1.5,2,2.5,3.5,2.9,4.6l8.4,21.4h-34.6l-9.6-22.5c-1.2-2.9-2.5-4.8-3.8-5.7-1.9-1.1-4.2-1.7-7-1.7h-2.7l-9,29.9h-30.7ZM3855,678.8c-2.2,7.5-2,12.8.7,16.1,2.8,3.3,7.3,4.9,13.7,4.9s12.2-1.6,16.7-4.8c4.6-3.2,8.1-8.9,10.6-17.2,2.1-7,1.7-12-1.1-15.2-2.8-3.2-7.4-4.8-13.9-4.8s-11.7,1.6-16.4,4.9c-4.7,3.3-8.2,8.7-10.5,16.2ZM3824.4,678.7c3.6-12.1,11-21.5,22-28.2,11-6.7,24.6-10.1,40.7-10.1s28.2,3.3,35.1,9.9c6.9,6.6,8.6,15.9,5,27.8-2.6,8.6-6.7,15.7-12.2,21.2-5.6,5.5-12.5,9.8-20.8,12.9-8.3,3.1-17.9,4.6-28.9,4.6s-20-1.3-26.5-4c-6.5-2.7-11.2-6.9-14-12.6-2.8-5.7-2.9-12.9-.3-21.6ZM3747.3,641.7h75.7l-4.8,15.9h-45l-3.9,12.9h38.5l-4.5,15h-38.5l-9.1,30.2h-30.7l22.3-73.9ZM3661.6,671.7h12.9c1.4,0,4.2-.3,8.4-1,2.1-.3,4-1.1,5.7-2.3,1.7-1.3,2.7-2.7,3.2-4.3.7-2.4.3-4.2-1.4-5.5-1.6-1.3-5.3-1.9-10.9-1.9h-13.5l-4.5,15.1ZM3617.6,715.6l22.3-73.9h51c9.5,0,16.5.6,21.1,1.8,4.6,1.2,8,3.5,10.1,6.7,2.1,3.3,2.4,7.3,1,12-1.2,4.1-3.5,7.6-6.7,10.6-3.2,3-7.2,5.4-11.9,7.3-3,1.2-6.9,2.2-11.6,2.9,3.4.9,5.8,1.8,7.1,2.7.9.6,2.2,1.9,3.7,3.9,1.5,2,2.5,3.5,2.9,4.6l8.4,21.4h-34.6l-9.6-22.5c-1.2-2.9-2.5-4.8-3.8-5.7-1.9-1.1-4.2-1.7-7-1.7h-2.7l-9,29.9h-30.7ZM3539.6,641.7h81.9l-4.8,15.8h-51.2l-3.5,11.8h47.5l-4.5,15.1h-47.5l-4.4,14.6h52.7l-5,16.7h-83.4l22.3-73.9ZM3460.7,673.3h7.5c5.9,0,10.4-.8,13.2-2.3,2.9-1.5,4.7-3.5,5.4-5.9.7-2.3.3-4.3-1.4-5.9-1.6-1.6-5.3-2.4-11-2.4h-8.8l-5,16.5ZM3439.5,641.7h50.9c11.1,0,18.8,2,23.2,5.9,4.3,3.9,5.4,9.6,3.2,16.8-2.3,7.5-7,13.3-14.3,17.5-7.3,4.2-17.1,6.3-29.5,6.3h-16.8l-8.2,27.4h-30.7l22.3-73.9Z"/>
    <path class="st12" d="M4699.3,904.3s0,0,0,0c0,0,0,0,0,0,0,0,0,0,0,0,0,0,0,0,0,0"/>
    <path class="st12" d="M4699.3,904.3s0,0,0,0c0,0,0,0,0,0,0,0,0,0,0,0,0,0,0,0,0,0"/>
    <g>
      <path class="st11" d="M4720.5,298.3c-2.8-3.7-5-6.3-6.6-7.7-1.6-1.4-3.7-2.8-6.2-4,5-.6,8.8-2.1,11.4-4.4,2.5-2.3,3.8-5.3,3.8-8.8s-.8-5.3-2.5-7.5c-1.7-2.2-3.9-3.7-6.7-4.5-2.8-.9-7.2-1.3-13.4-1.3h-24.4v47.5h11.6v-19.8h2.3c2.7,0,4.6.2,5.8.5,1.2.4,2.4,1,3.5,2,1.1,1,3.1,3.3,6.1,7l8.4,10.3h13.9l-7-9.3ZM4696.1,280.1h-8.6v-12h9c4.7,0,7.5,0,8.5.2,1.9.3,3.3.9,4.4,1.9,1,1,1.5,2.3,1.5,3.9s-.4,2.6-1.2,3.6c-.8,1-1.9,1.6-3.2,2-1.4.4-4.9.6-10.4.6Z"/>
      <path class="st11" d="M4699.8,238.6c-25.7,0-46.6,20.9-46.6,46.6s20.9,46.6,46.6,46.6,46.6-20.9,46.6-46.6-20.9-46.6-46.6-46.6ZM4699.8,323.5c-21.2,0-38.4-17.2-38.4-38.4s17.2-38.4,38.4-38.4,38.4,17.2,38.4,38.4-17.2,38.4-38.4,38.4Z"/>
    </g>
    <path class="st0" d="M3149.4,391.4c-14.1,0-23.2,1.6-26.4,4.9-3.4,3.3-5.3,12.1-5.3,26.6v18.5h57.8v-18.5c0-13.3-.9-21.8-4.5-25.7-3.8-3.8-10.3-5.8-21.6-5.8Z"/>
    <path class="st0" d="M2384.9,403.4c-4-3.2-12.1-4.8-23.9-4.8s-19.9,1.4-23.8,4.3c-4,2.8-6.6,9.2-6.6,19.1v123.3c0,10.2,2.7,17,6.6,20.2,3.8,3.2,11.7,4.9,22.5,4.9s20.7-1.8,25-5.4c4.1-3.6,6.1-12.4,6.1-26.4v-116.5c0-9.3-1.8-15.4-5.9-18.6Z"/>
    <path class="st0" d="M3626.9,395.1c4.2,0,8.2.3,12,.6-3.4-.4-7.3-.6-12-.6Z"/>
    <path class="st0" d="M4115.3,394c-14.1,0-23.6,1.6-26.9,4.9-3.4,3.3-6.1,12-6.1,26.3v18.8h60.3v-18.8c0-13.1-1.5-21.6-5.1-25.4-3.8-3.8-10.9-5.7-22.2-5.7Z"/>
    <polygon class="st14" points="4404.6 305.8 4403.5 609.6 4493.6 611.8 4603.9 612 4603.9 305.8 4404.6 305.8"/>
    <rect class="st8" x="2656.3" y="343.4" width="201" height="266.3"/>
    <path class="st9" d="M2390.8,374.5c-17.6-6.8-34.6-11.9-54.7-15.3-20.1-3.4-42.1-5.1-66.3-5.1s-58,3-80.6,9.2c-22.6,6.2-37.1,13.3-43.4,21.4-6.3,8.1-9.6,21.8-9.6,41.1v117.8c0,18.6,3.4,32,9.6,40.2,6.3,8.2,20.6,15.5,42.8,21.7,22.3,6.3,48.5,9.4,78.9,9.4s43.8-1.9,64.4-5.7c20.6-3.8,41.2-9.5,58.8-17v17.6h195.1v-308.1h-195.1v72.9ZM2390.8,538.5c0,14-1.9,22.9-6,26.4-4.3,3.6-12.6,5.4-25.1,5.4s-18.9-1.6-22.7-4.9c-4-3.2-6.5-10-6.5-20.2v-123.3c0-9.9,2.8-16.3,6.7-19.1,4-2.8,12.2-4.3,23.7-4.3s19.9,1.6,23.8,4.8c4.1,3.2,6,9.3,6,18.6v116.5Z"/>
    <path class="st7" d="M3280.4,358.5c-37-8.3-84-12.5-140.9-12.5s-87.6,3.4-123.4,10.4c-35.8,6.9-61.4,16.8-77.1,29.7-15.6,12.9-23.1,30.6-23.1,53v74.8c0,19.1,3.1,33.6,10.1,43.6,7,10,19.5,19.1,37.9,27.4,18.2,8.3,43.6,14.8,76.4,19.6,32.9,4.7,70.6,7.1,113.4,7.1s81.1-2.4,110.2-7.3c29.3-4.8,53.5-12.1,72.7-21.7,19-9.7,31.5-18.7,36.7-27.2,5.1-8.5,8.2-20.7,8.2-36.5v-18.1h-193.4v33c0,12.7-2.5,21.3-7.7,25.8-5.1,4.4-15.3,6.7-30.8,6.7s-20.8-1.7-25.3-5c-4.3-3.4-6.6-10.8-6.6-22.4v-57.2h263.8v-32.2c0-24.9-7.9-44.1-22.8-57.8-14.9-13.7-41.1-24.7-78.2-33ZM3175.4,441.4h-57.8v-18.5c0-14.4,1.9-23.3,5.3-26.6,3.3-3.3,12.1-4.9,26.1-4.9s18,2,21.8,5.8c3.6,3.9,4.6,12.5,4.6,25.7v18.5Z"/>
    <path class="st6" d="M4246.8,361.4c-37-8.2-84-12.3-140.9-12.3s-87.6,3.4-123.4,10.2c-35.8,6.8-62.2,16.6-78,29.4-15.6,12.8-24,30.2-24,52.4v73.9c0,18.8,3.9,33.2,11,43.1,7,9.8,20,18.9,38.3,27.1,18.2,8.2,43.8,14.7,76.6,19.4,32.9,4.7,70.7,7,113.5,7s81.1-2.3,110.2-7.2c29.3-4.8,53.5-11.9,72.7-21.4,19-9.6,30.7-18.5,35.8-26.9,5.1-8.4,7.4-20.5,7.4-36.1v-19.1h-191.8v33.9c0,12.6-2.5,21.1-7.7,25.5-5.1,4.4-15.3,6.6-30.7,6.6s-21.7-1.7-26.1-5c-4.3-3.3-7.5-10.7-7.5-22.2v-58.1h263.8v-30.4c0-24.6-7-43.6-22-57.2-14.9-13.6-40.3-24.4-77.3-32.7ZM4142.6,443.9h-60.3v-18.8c0-14.3,2.3-22.9,6.1-26.3s12.5-4.9,26.6-4.9,18.6,2,22.4,5.7c3.6,3.8,5.2,12.3,5.2,25.4v18.8Z"/>
    <path class="st5" d="M3608.6,560.6c3.4,3,10.3,4.8,23.5,4.8s20.4.2,23.7-4c2.3-3.2,3.6-7.8,3.6-13.6,0-12.4-3.3-20.1-10.2-23.2-7.3-3.1-44.3-12.3-111.1-27.6-48.8-11.3-81-21.6-96.6-31.1-.1,0-.2-.1-.3-.2,0,0-.1,0-.2-.1-2.1-1.3-3.9-2.6-5.4-3.9-.2-.2-.5-.4-.7-.6-2.8-2.4-5.3-4.9-7.3-7.5,0,0-.1,0-.1,0h0c-10.9-14.1-11.4-31.8-8.4-47.4,3.9-20.6,21.6-30.6,21.6-30.6,0,0,0,0,0,0,1.8-1.2,4-2.3,6.5-3.4,13.5-6.8,32.5-12.3,57.2-16.5,24.6-4.1,52.3-6.7,83.1-7.6,6.8-.3,12.7-.5,17.2-.3,3.3,0,6.7,0,10.1,0,41.4,0,77,2.2,106,6.5,29.2,4.4,51.7,10.1,67.2,17.2,10.7,4.9,17.6,8.8,22.7,12.9,3.7,3,7.1,7.2,8.4,9.7,3.3,6,5.3,14.6,5.3,27.4v15.1h-166.6v-16.7s.5-15.6-4.4-19.5c-3-2.4-7.6-3.7-14.4-4.4-3.4-.4-7.3-.6-11.9-.6-10.7,0-18.6,1.4-23.9,4.3-4.2,2.3-6.6,5-7.6,9.6-.1.9-.3,1.8-.3,2.4-.7,12.3,3.7,19.5,10.6,22.6,7.3,3.1,44.4,12.3,111.1,27.6,37.7,8.7,65.5,16.9,83.4,24.5,4.7,1.9,8.6,3.8,11.9,5.7,17,9.8,25.6,23.9,25.6,42.5s-5.5,34.2-18.1,45.4c-2.9,2.6-9.4,6.9-16.3,9.6-13.1,5.9-30.6,10-52.9,13.7-24.6,4.1-52.3,6.7-83.1,7.6-6.8.3-12.7.5-17.2.3-3.3,0-6.7,0-10.1,0-41.4,0-76.9-2.2-106-6.5-11.3-1.7-21.6-3.7-30.9-5.8.1,0,0,0,0,0,0,0-47.2-9.6-61-31.2-13.7-21.4-11-50.7-11-50.7h171.1v30.6s1,8.6,6.1,13.2Z"/>
  </g>
</svg>